<svg width="32" height="19" viewBox="0 0 32 19" fill="none" xmlns="http://www.w3.org/2000/svg">
<path d="M11.8468 18H25.6023C30.4628 18 31.8926 13.8845 32 11.8267C31.7441 4.5488 25.9233 4.67877 23.0449 5.65348C22.5332 2.79431 19.6334 0.996741 18.2475 0.455351C10.5717 -1.62404 7.16025 3.92084 6.41399 6.95321C2.57609 6.43336 0.762982 8.90265 0.336165 10.2023C-0.0911462 11.7216 -0.0823372 12.9741 0.201193 13.9976C1.39443 18.3051 7.37709 18 11.8468 18Z" fill="#0066DD"/>
<rect x="18.0117" y="12.0127" width="5" height="8" transform="rotate(-179.853 18.0117 12.0127)" fill="white"/>
<path d="M11.0154 10.9945L12.3012 10.9978L20.0154 11.0176L15.5 17.006L11.0154 10.9945Z" fill="white" stroke="white"/>
</svg>
