<svg width="32" height="24" viewBox="0 0 32 24" fill="none" xmlns="http://www.w3.org/2000/svg">
<path d="M11.5207 0H1.80282C0.807148 0 0 0.807149 0 1.80282V10L17.7778 9H32V4.62185C32 3.51728 31.1046 2.62185 30 2.62185H17.1268C15.5479 2.62185 14.4746 2.05184 13.8186 1.33972C13.2006 0.668752 12.433 0 11.5207 0Z" fill="#0066DD"/>
<path d="M0 5.50009C0 4.39553 0.895419 3.5001 1.99998 3.50009L12 3.5H16H30C31.1046 3.5 32 4.39543 32 5.5V21C32 22.1046 31.1046 23 30 23H2C0.895431 23 0 22.1046 0 21V5.50009Z" fill="#0F1010" fill-opacity="0.2"/>
<rect y="4" width="32" height="20" rx="2" fill="#0066DD"/>
</svg>
