<svg width="47" height="45" viewBox="0 0 47 45" fill="none" xmlns="http://www.w3.org/2000/svg">
<path d="M41.613 1.22656C42.5556 1.22656 43.3116 1.51123 43.881 2.08056C44.4596 2.6499 44.749 3.50856 44.749 4.65656V9.02456H41.585V5.20256C41.585 4.32523 41.2723 3.88656 40.647 3.88656C40.2923 3.88656 40.003 4.01256 39.779 4.26456C39.5643 4.50723 39.457 4.89456 39.457 5.42656V9.02456H36.293V1.36656H39.303V2.12256C39.6016 1.8239 39.947 1.5999 40.339 1.45056C40.731 1.30123 41.1556 1.22656 41.613 1.22656Z" fill="#272727"/>
<path d="M24.7897 21.5767L26.1337 22.2907L25.1677 23.8587L23.7957 23.0187L23.8377 24.5167H21.9617L22.0037 23.0187L20.6317 23.8587L19.6797 22.2907L21.0237 21.5767L19.6797 20.8627L20.6317 19.2947L22.0037 20.1347L21.9617 18.6367H23.8377L23.7957 20.1347L25.1677 19.2947L26.1337 20.8627L24.7897 21.5767Z" fill="#272727"/>
<path d="M6.874 4.858H9.744V9.002C9.16533 9.40333 8.49333 9.71133 7.728 9.926C6.96267 10.1407 6.21133 10.248 5.474 10.248C4.42867 10.248 3.49067 10.0333 2.66 9.604C1.82933 9.16533 1.176 8.55867 0.7 7.784C0.233333 7 0 6.11333 0 5.124C0 4.13467 0.233333 3.25267 0.7 2.478C1.176 1.694 1.834 1.08733 2.674 0.658C3.52333 0.219333 4.48 0 5.544 0C6.50533 0 7.364 0.163333 8.12 0.49C8.88533 0.807333 9.52 1.274 10.024 1.89L7.91 3.752C7.294 3.03333 6.56133 2.674 5.712 2.674C4.984 2.674 4.40533 2.89333 3.976 3.332C3.54667 3.77067 3.332 4.368 3.332 5.124C3.332 5.86133 3.542 6.454 3.962 6.902C4.39133 7.35 4.96067 7.574 5.67 7.574C6.09 7.574 6.49133 7.49467 6.874 7.336V4.858Z" fill="#272727"/>
<path d="M9.44072 22.1886C9.44072 22.2352 9.42672 22.4826 9.39872 22.9306H4.07872C4.19072 23.2199 4.37739 23.4439 4.63872 23.6026C4.90005 23.7519 5.22672 23.8266 5.61872 23.8266C5.95472 23.8266 6.23472 23.7846 6.45872 23.7006C6.69205 23.6166 6.94405 23.4719 7.21472 23.2666L8.86672 24.9326C8.12005 25.7539 7.00472 26.1646 5.52072 26.1646C4.59672 26.1646 3.78472 25.9966 3.08472 25.6606C2.38472 25.3152 1.84339 24.8392 1.46072 24.2326C1.07805 23.6259 0.886719 22.9446 0.886719 22.1886C0.886719 21.4232 1.07339 20.7419 1.44672 20.1446C1.82939 19.5379 2.34739 19.0666 3.00072 18.7306C3.66339 18.3946 4.40539 18.2266 5.22672 18.2266C6.00139 18.2266 6.70605 18.3806 7.34072 18.6886C7.98472 18.9966 8.49339 19.4492 8.86672 20.0466C9.24939 20.6439 9.44072 21.3579 9.44072 22.1886ZM5.25472 20.3826C4.92805 20.3826 4.65739 20.4712 4.44272 20.6486C4.22805 20.8259 4.08805 21.0779 4.02272 21.4046H6.48672C6.42139 21.0872 6.28139 20.8399 6.06672 20.6626C5.85205 20.4759 5.58139 20.3826 5.25472 20.3826Z" fill="#272727"/>
<path d="M24.4998 4.10261C25.2558 4.28928 25.8345 4.62994 26.2358 5.12461C26.6465 5.60994 26.8518 6.19794 26.8518 6.88861C26.8518 7.47661 26.6885 8.02728 26.3618 8.54061C26.0445 9.04461 25.5498 9.45528 24.8778 9.77261C24.2058 10.0899 23.3705 10.2486 22.3718 10.2486C21.6811 10.2486 20.9905 10.1739 20.2998 10.0246C19.6185 9.87528 19.0211 9.65594 18.5078 9.36661L19.6278 6.93061C20.0291 7.16394 20.4585 7.34128 20.9158 7.46261C21.3825 7.58394 21.8305 7.64461 22.2598 7.64461C22.6425 7.64461 22.9505 7.57928 23.1838 7.44861C23.4171 7.31794 23.5338 7.13128 23.5338 6.88861C23.5338 6.44061 23.1465 6.21661 22.3718 6.21661H21.0698V4.18661L22.5118 2.71661H19.0118V0.224609H26.3198V2.25461L24.4998 4.10261Z" fill="#272727"/>
<path d="M42.4998 21.1026C43.2558 21.2893 43.8345 21.6299 44.2358 22.1246C44.6465 22.6099 44.8518 23.1979 44.8518 23.8886C44.8518 24.4766 44.6885 25.0273 44.3618 25.5406C44.0445 26.0446 43.5498 26.4553 42.8778 26.7726C42.2058 27.0899 41.3705 27.2486 40.3718 27.2486C39.6811 27.2486 38.9905 27.1739 38.2998 27.0246C37.6185 26.8753 37.0211 26.6559 36.5078 26.3666L37.6278 23.9306C38.0291 24.1639 38.4585 24.3413 38.9158 24.4626C39.3825 24.5839 39.8305 24.6446 40.2598 24.6446C40.6425 24.6446 40.9505 24.5793 41.1838 24.4486C41.4171 24.3179 41.5338 24.1313 41.5338 23.8886C41.5338 23.4406 41.1465 23.2166 40.3718 23.2166H39.0698V21.1866L40.5118 19.7166H37.0118V17.2246H44.3198V19.2546L42.4998 21.1026Z" fill="#272727"/>
<path d="M46.051 39.2926C45.8644 40.114 45.5564 40.8513 45.127 41.5046L46.051 42.2886L44.357 44.2066L43.321 43.3106C42.3504 43.936 41.2584 44.2486 40.045 44.2486C39.2704 44.2486 38.5704 44.1273 37.945 43.8846C37.329 43.6326 36.8437 43.292 36.489 42.8626C36.1344 42.4333 35.957 41.948 35.957 41.4066C35.957 40.7906 36.111 40.2586 36.419 39.8106C36.727 39.3533 37.2077 38.9426 37.861 38.5786C37.301 37.9813 37.021 37.356 37.021 36.7026C37.021 36.18 37.1657 35.7226 37.455 35.3306C37.7537 34.9293 38.169 34.6166 38.701 34.3926C39.233 34.1686 39.849 34.0566 40.549 34.0566C41.193 34.0566 41.7577 34.1593 42.243 34.3646C42.7377 34.5606 43.1204 34.85 43.391 35.2326C43.6617 35.606 43.797 36.04 43.797 36.5346C43.797 37.0293 43.657 37.4726 43.377 37.8646C43.1064 38.2473 42.6817 38.602 42.103 38.9286L43.139 39.8106C43.307 39.4373 43.433 39.0126 43.517 38.5366L46.051 39.2926ZM40.563 36.1006C40.3484 36.1006 40.1804 36.152 40.059 36.2546C39.947 36.3573 39.891 36.4926 39.891 36.6606C39.891 36.782 39.9237 36.8986 39.989 37.0106C40.0637 37.1226 40.1944 37.2673 40.381 37.4446C40.8944 37.1646 41.151 36.8846 41.151 36.6046C41.151 36.4553 41.0997 36.334 40.997 36.2406C40.8944 36.1473 40.7497 36.1006 40.563 36.1006ZM40.283 41.8966C40.6564 41.8966 41.025 41.8173 41.389 41.6586L39.597 40.1186C39.233 40.38 39.051 40.6926 39.051 41.0566C39.051 41.2993 39.1584 41.5 39.373 41.6586C39.597 41.8173 39.9004 41.8966 40.283 41.8966Z" fill="#272727"/>
<path d="M6.10863 34.2246C7.01396 34.2246 7.80263 34.3739 8.47463 34.6726C9.14663 34.9713 9.66463 35.4006 10.0286 35.9606C10.3926 36.5206 10.5746 37.1739 10.5746 37.9206C10.5746 38.6673 10.3926 39.3206 10.0286 39.8806C9.66463 40.4406 9.14663 40.8699 8.47463 41.1686C7.80263 41.4673 7.01396 41.6166 6.10863 41.6166H4.69463V44.0246H1.39062V34.2246H6.10863ZM5.89862 39.0686C6.34662 39.0686 6.68263 38.9706 6.90663 38.7746C7.13063 38.5693 7.24263 38.2846 7.24263 37.9206C7.24263 37.5566 7.13063 37.2766 6.90663 37.0806C6.68263 36.8753 6.34662 36.7726 5.89862 36.7726H4.69463V39.0686H5.89862Z" fill="#272727"/>
<path d="M26.8382 41.462V44.024H18.9842V41.994L22.5262 38.718C22.8342 38.4287 23.0395 38.1813 23.1422 37.976C23.2448 37.7707 23.2962 37.57 23.2962 37.374C23.2962 37.1313 23.2122 36.9447 23.0442 36.814C22.8855 36.674 22.6522 36.604 22.3442 36.604C22.0455 36.604 21.7655 36.6833 21.5042 36.842C21.2428 37.0007 21.0422 37.2247 20.9022 37.514L18.4102 36.268C18.7835 35.568 19.3295 35.0173 20.0482 34.616C20.7668 34.2053 21.6348 34 22.6522 34C23.4268 34 24.1128 34.126 24.7102 34.378C25.3075 34.63 25.7742 34.9893 26.1102 35.456C26.4462 35.9227 26.6142 36.4593 26.6142 37.066C26.6142 37.6073 26.4975 38.116 26.2642 38.592C26.0402 39.0587 25.5968 39.5907 24.9342 40.188L23.5342 41.462H26.8382Z" fill="#272727"/>
</svg>
